<?xml version="1.0" encoding="utf-8"?>
<!-- Generator: Adobe Illustrator 22.1.0, SVG Export Plug-In . SVG Version: 6.00 Build 0)  -->
<svg version="1.1" id="Layer_1" xmlns="http://www.w3.org/2000/svg" xmlns:xlink="http://www.w3.org/1999/xlink" x="0px" y="0px"
	 viewBox="0 0 87.5 98.4" style="enable-background:new 0 0 87.5 98.4;" xml:space="preserve">
<style type="text/css">
	.st0{fill:none;}
	.st1{fill:#231F20;stroke:#231F20;}
	.st2{font-family:'DaxPro';}
	.st3{font-size:36px;}
	.st4{fill:none;stroke:#231F20;stroke-width:1.966;stroke-miterlimit:10;}
	.st5{fill:#FFFFFF;stroke:#231F20;stroke-width:1.9634;stroke-miterlimit:10;}
	.st6{fill:#FFFFFF;stroke:#231F20;stroke-width:1.7104;stroke-miterlimit:10;}
	.st7{fill:none;stroke:#231F20;stroke-width:1.7104;stroke-miterlimit:10;}
</style>
<rect x="35.8" y="42.3" class="st0" width="24.4" height="44.1"/>
<text transform="matrix(1 0 0 1 35.7976 70.5969)" class="st1 st2 st3">$</text>
<g>
	<path class="st4" d="M65.4,53.7c-0.3,10.1-11.6,17.5-14.7,30.8c-4.2,17.9-10.9,14.2-14.5-0.1C32.2,69.2,25,63.1,23.2,53.7
		c-1.5-8,9.3-21.1,21-21.1S65.6,45.2,65.4,53.7z"/>
	<path class="st5" d="M51.4,86H35.1c-0.9,0-1.7-0.8-1.7-1.7v-0.4c0-0.9,0.8-1.7,1.7-1.7h16.3c0.9,0,1.7,0.8,1.7,1.7v0.4
		C53.1,85.2,52.3,86,51.4,86z"/>
	<path class="st5" d="M51.4,89.9H35.1c-0.9,0-1.7-0.8-1.7-1.7v-0.4c0-0.9,0.8-1.7,1.7-1.7h16.3c0.9,0,1.7,0.8,1.7,1.7v0.4
		C53.1,89.1,52.3,89.9,51.4,89.9z"/>
	<path class="st6" d="M46.6,97.6h-6.7c-1.2,0-2.2-1-2.2-2.2v-1.2c0-1.2,1-2.2,2.2-2.2h6.7c1.2,0,2.2,1,2.2,2.2v1.2
		C48.8,96.6,47.8,97.6,46.6,97.6z"/>
	<path class="st5" d="M51.4,93.7H35.1c-0.9,0-1.7-0.8-1.7-1.7v-0.4c0-0.9,0.8-1.7,1.7-1.7h16.3c0.9,0,1.7,0.8,1.7,1.7V92
		C53.1,92.9,52.3,93.7,51.4,93.7z"/>
	<line class="st7" x1="18.6" y1="71.9" x2="10.3" y2="80.1"/>
	<line class="st7" x1="14.6" y1="63.1" x2="1.7" y2="66.6"/>
	<line class="st7" x1="13.6" y1="48.5" x2="0" y2="47.9"/>
	<line class="st7" x1="38.7" y1="20.4" x2="33.3" y2="0.6"/>
	<line class="st7" x1="3.3" y1="27.7" x2="19.1" y2="35.4"/>
	<line class="st7" x1="14.4" y1="11.6" x2="26.3" y2="25.6"/>
	<line class="st7" x1="68.9" y1="71.5" x2="77.2" y2="79.7"/>
	<line class="st7" x1="72.9" y1="62.7" x2="85.8" y2="66.2"/>
	<line class="st7" x1="73.9" y1="48.2" x2="87.5" y2="47.5"/>
	<line class="st7" x1="48.8" y1="20.1" x2="54.2" y2="0.2"/>
	<line class="st7" x1="84.2" y1="27.3" x2="68.4" y2="35"/>
	<line class="st7" x1="73.1" y1="11.2" x2="61.2" y2="25.3"/>
</g>
</svg>
