<?xml version="1.0" encoding="utf-8"?>
<!-- Generator: Adobe Illustrator 22.1.0, SVG Export Plug-In . SVG Version: 6.00 Build 0)  -->
<svg version="1.1" id="Layer_1" xmlns="http://www.w3.org/2000/svg" xmlns:xlink="http://www.w3.org/1999/xlink" x="0px" y="0px"
	 viewBox="0 0 173.2 83.4" style="enable-background:new 0 0 173.2 83.4;" xml:space="preserve">
<style type="text/css">
	.st0{fill:none;stroke:#231F20;stroke-miterlimit:10;}
	.st1{fill:none;}
	.st2{fill:#231F20;}
	.st3{font-family:'SinhalaMN';}
	.st4{font-size:38px;}
	.st5{font-family:'SinhalaMN-Bold';}
</style>
<path class="st0" d="M65.2,6.4c0,0-14.8-15.8-24.4,4.5c0,0-20.4-10.8-23.9,9.4c0,0-20.2,2.4-10.6,20.3c0,0-17.8,17.4,9.8,20
	c0,0,5.7,24.8,24.5,9.8c0,0,7.8,18.3,22.9,4.3c0,0,12.9,16.4,25.2,1.5c0,0,14.2,16.3,24.1-1.4c0,0,15.6,11,23.8-4.4
	c0,0,19.8,9.6,23.5-9.1c0,0,20.6-10.4,9.1-24.4c0,0,3.9-16.6-12.9-16.6c0,0-2.2-17.6-18.3-8.9c0,0-13.7-17.6-24.4-4.7
	c0,0-17.4-12.3-24.7,1.6c-0.5,1-2,1-2.5-0.1C83.9,3.2,77.9-4.4,65.2,6.4z"/>
<rect x="17.6" y="28.3" class="st1" width="152.1" height="32.3"/>
<text transform="matrix(1 0 0 1 17.6021 49.4016)"><tspan x="0" y="0" class="st2 st3 st4">vision</tspan><tspan x="70.7" y="0" class="st2 st5 st4">SELL</tspan></text>
</svg>
