<?xml version="1.0" encoding="utf-8"?>
<!-- Generator: Adobe Illustrator 22.1.0, SVG Export Plug-In . SVG Version: 6.00 Build 0)  -->
<svg version="1.1" id="Layer_1" xmlns="http://www.w3.org/2000/svg" xmlns:xlink="http://www.w3.org/1999/xlink" x="0px" y="0px"
	 viewBox="0 0 95.5 73.8" style="enable-background:new 0 0 95.5 73.8;" xml:space="preserve">
<style type="text/css">
	.st0{fill:#FFFFFF;stroke:#231F20;stroke-width:1.4943;stroke-miterlimit:10;}
	.st1{fill:none;}
	.st2{fill:#231F20;stroke:#231F20;stroke-width:0.7472;}
	.st3{font-family:'DaxPro';}
	.st4{font-size:26.8983px;}
</style>
<g>
	<path class="st0" d="M86.9,59.2H8.6c-4.3,0-7.9-3.5-7.9-7.9V8.6c0-4.3,3.5-7.9,7.9-7.9h78.3c4.3,0,7.9,3.5,7.9,7.9v42.8
		C94.8,55.7,91.2,59.2,86.9,59.2z"/>
	<path class="st0" d="M80.8,55.4h-66c-4.3,0-7.9-3.5-7.9-7.9V12.4c0-4.3,3.5-7.9,7.9-7.9h66c4.3,0,7.9,3.5,7.9,7.9v35.2
		C88.6,51.9,85.1,55.4,80.8,55.4z"/>
	<rect x="41.6" y="17.1" class="st1" width="18.2" height="33"/>
	<text transform="matrix(1 0 0 1 41.6492 38.1985)" class="st2 st3 st4">$</text>
	<rect x="45.5" y="59.2" class="st0" width="4.5" height="9.7"/>
	<path class="st0" d="M64.5,73H31c-1.1,0-2-0.9-2-2l0,0c0-1.1,0.9-2,2-2h33.5c1.1,0,2,0.9,2,2l0,0C66.5,72.1,65.6,73,64.5,73z"/>
</g>
</svg>
